<?xml version="1.0" encoding="utf-8"?>
<!-- Generator: Adobe Illustrator 25.2.1, SVG Export Plug-In . SVG Version: 6.00 Build 0)  -->
<svg version="1.1" id="Layer_1" xmlns="http://www.w3.org/2000/svg" xmlns:xlink="http://www.w3.org/1999/xlink" x="0px" y="0px"
	 viewBox="0 0 3300 2200" style="enable-background:new 0 0 3300 2200;" xml:space="preserve">
<style type="text/css">
	.st0{fill:#FFFFFF;}
	.st1{fill:none;stroke:#000000;stroke-width:0.5;}
	.st2{font-family:'Arial-BoldMT';}
	.st3{font-size:12px;}
	.st4{font-family:'ArialMT';}
	.st5{fill:none;stroke:#00AEEF;stroke-width:0.5;}
	.st6{fill:#27AAE1;}
	.st7{fill:none;stroke:#27AAE1;stroke-width:0.5;}
	.st8{fill:none;stroke:#000000;stroke-width:8.73;stroke-miterlimit:10;}
</style>
<g id="Notes">
	<rect id="artboard" x="3.3" y="4.1" class="st0" width="3300" height="2200"/>
	<line class="st1" x1="266.3" y1="296.1" x2="3039.3" y2="296.1"/>
	<text transform="matrix(1 0 0 1 266.3112 326.0945)" class="st2 st3">Weight/Scale Variations</text>
	<text transform="matrix(1 0 0 1 539.3474 326.0945)" class="st4 st3">Ultralight</text>
	<text transform="matrix(1 0 0 1 848.0613 326.0945)" class="st4 st3">Thin</text>
	<text transform="matrix(1 0 0 1 1143.4304 326.0945)" class="st4 st3">Light</text>
	<text transform="matrix(1 0 0 1 1432.1394 326.0945)" class="st4 st3">Regular</text>
	<text transform="matrix(1 0 0 1 1728.5315 326.0945)" class="st4 st3">Medium</text>
	<text transform="matrix(1 0 0 1 2021.5675 326.0945)" class="st4 st3">Semibold</text>
	<text transform="matrix(1 0 0 1 2331.2825 326.0945)" class="st4 st3">Bold</text>
	<text transform="matrix(1 0 0 1 2622.9944 326.0945)" class="st4 st3">Heavy</text>
	<text transform="matrix(1 0 0 1 2922.0393 326.0945)" class="st4 st3">Black</text>
	<line class="st1" x1="266.3" y1="1907.1" x2="3039.3" y2="1907.1"/>
	<g transform="matrix(1 0 0 1 263 1933)">
		<path d="M12.5,4.9c4.3,0,7.9-3.6,7.9-7.9s-3.6-7.9-7.9-7.9S4.6-7.3,4.6-3C4.7,1.3,8.3,4.9,12.5,4.9z M12.5,3.4
			C9,3.4,6.1,0.6,6.1-3s2.8-6.4,6.4-6.4s6.4,2.8,6.4,6.4C19,0.6,16.1,3.4,12.5,3.4z M9.7-2.2h2.1v2.1c0,0.4,0.3,0.7,0.7,0.7
			s0.7-0.3,0.7-0.7v-2.1h2.1c0.4,0,0.7-0.3,0.7-0.7s-0.3-0.7-0.7-0.7h-2v-2.1c0-0.4-0.3-0.8-0.7-0.8s-0.7,0.3-0.7,0.8v2.1H9.7
			c-0.4,0-0.8,0.3-0.8,0.7S9.2-2.2,9.7-2.2z"/>
	</g>
	<g transform="matrix(1 0 0 1 281.506 1933)">
		<path d="M15,7c5.4,0,10-4.5,10-10c0-5.4-4.5-10-10-10C9.6-13,5-8.5,5-3S9.6,7,15,7z M15,5.3c-4.6,0-8.3-3.7-8.3-8.3
			s3.7-8.3,8.3-8.3s8.3,3.7,8.3,8.3S19.6,5.3,15,5.3z M11.3-2.2h2.9v2.9c0,0.5,0.3,0.8,0.8,0.8s0.8-0.3,0.8-0.8v-2.9h2.9
			c0.5,0,0.8-0.3,0.8-0.8s-0.3-0.8-0.8-0.8h-2.9v-2.9c0-0.5-0.3-0.8-0.8-0.8s-0.8,0.3-0.8,0.8v2.9h-2.9c-0.5,0-0.8,0.3-0.8,0.8
			C10.4-2.5,10.8-2.2,11.3-2.2z"/>
	</g>
	<g transform="matrix(1 0 0 1 304.924 1933)">
		<path d="M18.3,9.7C25.3,9.7,31,3.9,31-3c0-7-5.8-12.7-12.7-12.7c-7,0-12.7,5.8-12.7,12.7C5.6,4,11.3,9.7,18.3,9.7z M18.3,7.9
			C12.3,7.9,7.4,3,7.4-3s4.8-10.9,10.9-10.9c6,0,10.9,4.9,10.9,10.9C29.2,3.1,24.3,7.9,18.3,7.9z M13.4-2.1h4v4
			c0,0.5,0.4,0.9,0.9,0.9s0.9-0.4,0.9-0.9v-4h4c0.5,0,0.9-0.4,0.9-0.9s-0.4-0.9-0.9-0.9h-4v-4c0-0.6-0.4-0.9-0.9-0.9
			s-0.9,0.4-0.9,0.9v4h-4c-0.6,0-1,0.4-1,0.9C12.4-2.4,12.8-2.1,13.4-2.1z"/>
	</g>
	<text transform="matrix(1 0 0 1 266.3112 1957.0945)" class="st2 st3">Design Variations</text>
	<text transform="matrix(1 0 0 1 266.3112 1975.0945)" class="st4 st3">Symbols are supported in up to nine weights and three scales.</text>
	<text transform="matrix(1 0 0 1 266.3112 1993.0945)" class="st4 st3">For optimal layout with text and other symbols, vertically align</text>
	<text transform="matrix(1 0 0 1 266.3112 2011.0945)" class="st4 st3">symbols with the adjacent text.</text>
	<line class="st5" x1="779.3" y1="1923.1" x2="779.3" y2="1937.1"/>
	<g transform="matrix(1 0 0 1 776 1933)">
		<path d="M6.6,4.2c0.5,0,0.8-0.2,1-0.7L8.9,0h5.8l1.1,3.5C16,4,16.2,4.2,16.7,4.2s0.8-0.3,0.8-0.8c0-0.2,0-0.3-0.1-0.5L13-9.3
			c-0.2-0.6-0.6-0.9-1.2-0.9s-1,0.3-1.2,0.9L5.9,2.9C5.8,3.1,5.8,3.2,5.8,3.4C5.8,3.9,6.1,4.2,6.6,4.2z M9.3-1.5l2.4-6.6l0,0
			l2.4,6.6C14.1-1.5,9.3-1.5,9.3-1.5z"/>
	</g>
	<line class="st5" x1="796.1" y1="1923.1" x2="796.1" y2="1937.1"/>
	<text transform="matrix(1 0 0 1 779.3112 1957.0945)" class="st2 st3">Margins</text>
	<text transform="matrix(1 0 0 1 779.3112 1975.0945)" class="st4 st3">Leading and trailing margins on the left and right side of each symbol</text>
	<text transform="matrix(1 0 0 1 779.3112 1993.0945)" class="st4 st3">can be adjusted by modifying the x-location of the margin guidelines.</text>
	<text transform="matrix(1 0 0 1 779.3112 2011.0945)" class="st4 st3">Modifications are automatically applied proportionally to all</text>
	<text transform="matrix(1 0 0 1 779.3112 2029.0945)" class="st4 st3">scales and weights.</text>
	<g transform="matrix(1 0 0 1 1289 1933)">
		<path d="M6.1,5.9l1.7,1.7c0.9,0.9,1.9,0.9,2.8-0.2L20.8-3.8c0.3,0.1,0.5,0.1,0.8,0L22.7-4l0.7,0.7v0.6c0,0.5,0.1,0.9,0.6,1.4
			l0.8,0.7c0.5,0.5,1.1,0.5,1.6,0l2.7-2.9c0.5-0.5,0.4-1.1,0-1.5l-0.8-0.8c-0.5-0.5-0.8-0.6-1.3-0.6h-0.6L25.8-7L26-8.1
			c0.1-0.6,0-1-0.6-1.6l-2.2-2.2c-3.3-3.3-7.8-3.2-10.7-0.4c-0.4,0.4-0.4,1-0.2,1.4s0.7,0.6,1.3,0.4c1.5-0.3,3-0.4,4.4,0.5l-0.6,1.5
			c-0.1,0.5-0.1,0.9,0,1.3L6.3,3.2C5.4,4.1,5.3,5.1,6.1,5.9z M14.1-11.9c2.4-1.8,5.7-1.5,7.9,0.8l2.4,2.4c0.2,0.2,0.3,0.4,0.2,0.8
			l-0.3,1.4L25.8-5l1-0.1c0.3,0,0.3,0,0.5,0.2l0.6,0.6l-2.4,2.4l-0.6-0.6c-0.2-0.2-0.2-0.3-0.2-0.5l0.1-1l-1.5-1.4l-1.5,0.3
			c-0.3,0.1-0.5,0-0.7-0.2l-2-2c-0.3-0.2-0.3-0.4-0.1-0.8l0.9-2.1c-1.6-1.5-3.6-2.1-5.6-1.5C14-11.6,13.9-11.8,14.1-11.9z M8.6,6.4
			L7.4,5.2C6.9,4.7,7,4.4,7.4,4L18.3-6.1l1.5,1.5l-10,11C9.4,6.8,9,6.9,8.6,6.4z"/>
	</g>
	<text transform="matrix(1 0 0 1 1292.3112 1957.0945)" class="st2 st3">Exporting</text>
	<text transform="matrix(1 0 0 1 1292.3112 1975.0945)" class="st4 st3">Symbols should be outlined when exporting to ensure the</text>
	<text transform="matrix(1 0 0 1 1292.3112 1993.0945)" class="st4 st3">design is preserved when submitting to Xcode.</text>
	<text id="template-version" transform="matrix(1 0 0 1 2962.1609 1937.0945)" class="st4 st3">Template v.2.0</text>
	<text transform="matrix(1 0 0 1 2881.8875 1955.0945)" class="st4 st3">Requires Xcode 12 or greater</text>
	<text transform="matrix(1 0 0 1 2869.2195 1973.0945)" class="st4 st3">Generated from square.grid.3x3</text>
	<text transform="matrix(1 0 0 1 2925.2351 1991.0945)" class="st4 st3">Typeset at 100 points</text>
	<text transform="matrix(1 0 0 1 266.3112 730.0945)" class="st4 st3">Small</text>
	<text transform="matrix(1 0 0 1 266.3112 1160.0945)" class="st4 st3">Medium</text>
	<text transform="matrix(1 0 0 1 266.3112 1590.0945)" class="st4 st3">Large</text>
</g>
<g id="Guides">
	<g id="H-reference" transform="matrix(1 0 0 1 339 696)">
		<path class="st6" d="M1,0h2.7L13-24.5h32.8L55.1,0h2.6L30.6-70.5h-2.5L1,0z M29.3-67.1L29.3-67.1l15.5,40.4h-31L29.3-67.1z"/>
	</g>
	<line id="Baseline-S" class="st7" x1="263" y1="696" x2="3036" y2="696"/>
	<line id="Capline-S" class="st7" x1="263" y1="625.5" x2="3036" y2="625.5"/>
	<g id="H-reference_1_" transform="matrix(1 0 0 1 339 1126)">
		<path class="st6" d="M1,0h2.7L13-24.5h32.8L55.1,0h2.6L30.6-70.5h-2.5L1,0z M29.3-67.1L29.3-67.1l15.5,40.4h-31L29.3-67.1z"/>
	</g>
	<line id="Baseline-M" class="st7" x1="263" y1="1126" x2="3036" y2="1126"/>
	<line id="Capline-M" class="st7" x1="263" y1="1055.5" x2="3036" y2="1055.5"/>
	<g id="H-reference_2_" transform="matrix(1 0 0 1 339 1556)">
		<path class="st6" d="M1,0h2.7L13-24.5h32.8L55.1,0h2.6L30.6-70.5h-2.5L1,0z M29.3-67.1L29.3-67.1l15.5,40.4h-31L29.3-67.1z"/>
	</g>
	<line id="Baseline-L" class="st7" x1="263" y1="1556" x2="3036" y2="1556"/>
	<line id="Capline-L" class="st7" x1="263" y1="1485.5" x2="3036" y2="1485.5"/>
	<line id="left-margin" class="st5" x1="1389.5" y1="1030.8" x2="1389.5" y2="1150.1"/>
	<line id="right-margin" class="st5" x1="1510.2" y1="1030.8" x2="1510.2" y2="1150.1"/>
</g>
<g id="Black-L" transform="matrix(1 0 0 1 2845.46 1556)">
	<path d="M135.2,35h-94l-6.4-66.8H5.7L17.5-43c0.3-0.3,34.7-33.2,66.2-59.7l4.2-3.6l4.2,3.6c31.4,26.5,66.7,59.3,67,59.6l12.2,11.4
		h-29.7L135.2,35z M53.1,21.9h70.2l6.4-66.8h8.2C125.8-56,106.5-73.3,88-89.1C69.4-73.3,50.5-55.9,38.6-44.9h8.1L53.1,21.9z"/>
</g>
<g id="Heavy-L" transform="matrix(1 0 0 1 2551.14 1556)">
	<path d="M130.6,32.7H40.2L34-32.1H6.7L17.1-42c0.3-0.3,33.8-32.2,64.3-57.9l3.7-3.1l3.7,3.1c30.5,25.7,64.8,57.5,65.2,57.8l10.7,10
		h-27.9L130.6,32.7z M50.7,21.1h69.4l6.2-64.8h9C123.5-54.4,103.9-72.1,85.1-88c-18.7,15.9-38,33.6-49.5,44.4h8.9L50.7,21.1z"/>
</g>
<g id="Bold-L" transform="matrix(1 0 0 1 2257.12 1556)">
	<path d="M126.1,29.9H39.3L33.2-33H7.5l9.1-8.7c0.3-0.3,32.8-31.2,62.6-56.1l3.2-2.7l3.2,2.7C115.3-72.9,148.7-42,149-41.7l9.4,8.7
		h-26.3L126.1,29.9z M48.4,19.9H117l6-62.9h9.6c-11.4-10.4-31.3-28.3-50.2-44.3C63.5-71.3,44-53.4,32.8-43h9.5L48.4,19.9z"/>
</g>
<g id="Semibold-L" transform="matrix(1 0 0 1 1962.26 1556)">
	<path d="M123.3,27.9H39.2l-5.9-61.4H8.8l8.2-7.8c0.3-0.3,32.1-30.5,61.1-54.8l2.9-2.4l2.9,2.4c29,24.3,61.6,54.5,61.9,54.8l8.4,7.8
		h-25L123.3,27.9z M47.3,18.9h67.8l5.9-61.4h10.1C120.1-52.6,100-70.7,81-86.8C62-70.7,42.2-52.6,31.5-42.5h10L47.3,18.9z"/>
</g>
<g id="Medium-L" transform="matrix(1 0 0 1 1092.88 1126)">
	<g id="Medium-L_1_" transform="matrix(1 0 0 1 1402.53 696)">
		<path d="M-701.7-240.2h-82.1l-5.9-61.1h-22.9l6.5-6.2c0.3-0.3,31.9-30.3,60.8-54.5l2.3-1.9l2.3,1.9c28.9,24.2,61.3,54.2,61.6,54.5
			l6.7,6.2h-23.4L-701.7-240.2z M-777.3-247.4h69.1l5.9-61.1h11.5c-10.6-9.7-32.1-29.1-52.2-46.1c-20.1,17-41.2,36.4-51.5,46.1h11.4
			L-777.3-247.4z"/>
	</g>
</g>
<g id="Regular-L" transform="matrix(1 0 0 1 1372.06 1556)">
	<path id="Regular-L_1_" d="M120.4,24.2H41.2l-5.6-58.7H13.2l6.5-6.2C20-41,50.3-69.7,78.1-93l2.3-1.9l2.3,1.9
		c27.7,23.2,58.9,52,59.2,52.3l6.7,6.2H126L120.4,24.2z M47.8,17h66.1l5.6-58.7h10.8C120-51.1,99.6-69.5,80.4-85.6
		C61.3-69.4,41.3-51.1,31.3-41.7h10.9L47.8,17z"/>
</g>
<g id="Light-L" transform="matrix(1 0 0 1 1075.45 1556)">
	<g id="Light-L_1_" transform="matrix(1 0 0 1 1402.53 696)">
		<path d="M-1286-671.7h-78.7l-5.7-59.4h-21.3l5.2-5c0.3-0.3,31-29.5,59-53l1.9-1.6l1.9,1.6c28,23.5,59.5,52.7,59.8,52.9l5.4,5
			h-21.7L-1286-671.7z M-1359.4-677.5h68.2l5.7-59.4h12.2c-9.9-9.1-31.8-28.9-52.3-46.2c-20.5,17.3-42,37.1-51.6,46.2h12
			L-1359.4-677.5z"/>
	</g>
</g>
<g id="Thin-L" transform="matrix(1 0 0 1 778.883 1556)">
	<g id="Thin-L_1_" transform="matrix(1 0 0 1 1402.53 696)">
		<path d="M-1286.6-672.7h-77l-5.8-59.9h-19.4l2.9-2.8c0.3-0.3,31.2-29.7,59.5-53.3l1-0.9l1,0.9c28.2,23.7,60,53,60.3,53.3l3,2.8
			h-19.8L-1286.6-672.7z M-1360.6-675.9h71.1l5.8-59.9h14.5c-8.5-7.8-33.3-30.4-56.1-49.5c-22.8,19.2-47,41.8-55.3,49.5h14.2
			L-1360.6-675.9z"/>
	</g>
</g>
<g id="Ultralight-L" transform="matrix(1 0 0 1 482.245 1556)">
	<g id="Ultralight-L_1_" transform="matrix(1 0 0 1 1402.53 696)">
		<path d="M-1287.5-672.9h-75.7l-5.7-60.1h-18.6l2.1-2.1c0.3-0.3,31-29.8,59-53.6l0.8-0.7l0.8,0.7c28,23.8,59.5,53.2,59.8,53.5
			l2.2,2.1h-19L-1287.5-672.9z M-1361.1-675.3h71.3l5.7-60.1h15.1c-7.6-7.1-33.2-30.8-56.7-50.7c-23.5,20-48.6,43.7-56,50.7h14.8
			L-1361.1-675.3z"/>
	</g>
</g>
<g id="Black-M" transform="matrix(1 0 0 1 2862.06 1126)">
	<g id="Black-M_1_" transform="matrix(1 0 0 1 2274.16 1126)">
		<path d="M-2163.8-1103.6h-77l-5.2-53.8h-24.3l10.4-9.9c0.3-0.3,28.1-26.7,53.6-48.1l3.7-3.1l3.7,3.1c25.4,21.3,54,47.8,54.3,48
			l10.8,10h-24.9L-2163.8-1103.6z M-2230.3-1115.1h56.1l5.2-53.8h5.8c-9.8-8.9-24.8-22.3-39.2-34.6c-14.4,12.3-29.2,25.7-38.7,34.6
			h5.8L-2230.3-1115.1z"/>
	</g>
</g>
<g id="Heavy-M" transform="matrix(1 0 0 1 2567.96 1126)">
	<g id="Heavy-M_1_" transform="matrix(1 0 0 1 2274.16 1126)">
		<path d="M-2168.4-1106.3h-73.6l-5-52.1h-22.7l9.1-8.7c0.3-0.3,27.2-25.9,51.9-46.6l3.2-2.7l3.2,2.7c24.6,20.7,52.3,46.3,52.6,46.5
			l9.4,8.7h-23.2L-2168.4-1106.3z M-2232.8-1116.4h55.3l5-52.1h6.5c-9.5-8.6-24.8-22.3-39.4-34.7c-14.6,12.4-29.6,26.1-38.9,34.7
			h6.5L-2232.8-1116.4z"/>
	</g>
</g>
<g id="Bold-M" transform="matrix(1 0 0 1 2274.16 1126)">
	<path d="M100.1,17H30.5l-4.8-49.9H4.8l7.8-7.4c0.3-0.2,26.1-24.8,49.7-44.6l2.8-2.3l2.8,2.3c23.6,19.8,50,44.3,50.3,44.5l8.1,7.5
		h-21.4L100.1,17z M38.4,8.3h53.8L97-41.5h7.1c-9.1-8.3-24.4-22-39-34.4C50.5-63.6,35.4-49.8,26.6-41.5h7L38.4,8.3z"/>
</g>
<g id="Semibold-M" transform="matrix(1 0 0 1 1979.42 1126)">
	<path d="M95.4,15.1H31.8l-4.4-48.2H8.6l6.8-6.9c0.2-0.2,23.8-23.9,45.3-43.1l2.7-2.4l2.7,2.4c21.5,19.1,45.6,42.8,45.9,43l7.1,6.9
		H99.8L95.4,15.1z M39.2,7H88l4.4-48.2h6.7C91-49.1,76.9-62.5,63.4-74.6C50-62.5,36.2-49.1,28.2-41.2h6.7L39.2,7z"/>
</g>
<g id="Medium-M" transform="matrix(1 0 0 1 1684.25 1126)">
	<path d="M95,13.2H30.3l-4.5-47.1h-19l6.5-6.2c0.2-0.2,24.6-23.4,46.8-42l2.3-1.9l2.3,1.9c22.2,18.6,47.2,41.8,47.5,42l6.7,6.2H99.6
		L95,13.2z M36.8,6h51.7L93-41h7.5c-8.5-7.8-23.6-21.4-38-33.6C48.1-62.4,33.2-48.8,24.9-41h7.4L36.8,6z"/>
</g>
<g id="Regular-M" transform="matrix(1 0 0 1 1389.52 1126)">
	<path id="Regular-M_1_" d="M91.7,11.6h-62l-4.3-45.5h-18l5.9-5.6c0.1-0.2,23.6-22.5,45-40.5l2.1-1.7l2.1,1.7
		c21.4,17.9,45.6,40.3,45.8,40.5l6.1,5.6H96L91.7,11.6z M35.5,5.2h50.3l4.3-45.5h7.6c-8.1-7.4-23.2-20.9-37.4-32.9
		c-14.2,12-28.9,25.5-36.8,32.9h7.7L35.5,5.2z"/>
</g>
<g id="Light-M" transform="matrix(1 0 0 1 1092.88 1126)">
	<g id="Light-M_1_" transform="matrix(1 0 0 1 1402.53 696)">
		<path d="M-1311.7-685.1h-61.3l-4.4-45.8h-16.9l4.6-4.3c0.2-0.2,23.9-22.7,45.6-40.9l1.6-1.4l1.6,1.4
			c21.6,18.1,45.9,40.6,46.2,40.9l4.7,4.4h-17.3L-1311.7-685.1z M-1368.4-690.1h52.1l4.4-45.8h9c-7.9-7.2-24.2-22-39.6-35
			c-15.4,13-31.4,27.8-39.1,35h8.8L-1368.4-690.1z"/>
	</g>
</g>
<g id="Thin-M" transform="matrix(1 0 0 1 796.29 1126)">
	<g id="Thin-M_1_" transform="matrix(1 0 0 1 809.279 696)">
		<g id="Light-S_2_" transform="matrix(1 0 0 1 1402.53 696)">
			<path d="M-2121.7-1381.8h-59.9l-4.5-46.3h-15.3l2.6-2.5c0.2-0.2,24.1-22.9,46-41.2l0.9-0.8l0.9,0.8c21.8,18.3,46.3,41,46.6,41.2
				l2.7,2.5h-15.6L-2121.7-1381.8z M-2179-1384.7h54.6l4.5-46.3h10.9c-6.9-6.3-25.6-23.3-42.8-37.9c-17.3,14.5-35.6,31.6-42.3,37.9
				h10.7L-2179-1384.7z"/>
		</g>
	</g>
</g>
<g id="Ultralight-M" transform="matrix(1 0 0 1 499.653 1126)">
	<path d="M89.5,10.1h-59L26-36.4H11.2l2.1-2.1c0.2-0.2,24-23,45.6-41.4l0.8-0.7l0.8,0.7c21.7,18.4,46,41.2,46.3,41.4l2.2,2.1H94
		L89.5,10.1z M32.7,7.7h54.7l4.4-46.5H103c-6.4-6-25.6-23.6-43.2-38.6c-17.6,15-36.4,32.7-42.6,38.6h11L32.7,7.7z"/>
</g>
<g id="Black-S" transform="matrix(1 0 0 1 2877.71 696)">
	<g id="Black-S_1_" transform="matrix(1 0 0 1 2582.98 696)">
		<path id="Heavy-S_3_" class="st8" d="M-2556.9-732.9l4,42.1h51.6l4-42.1c0,0,11.3,0,12,0c0,0-22.1-20.7-42-37.5
			c-19.9,16.8-41.4,37.5-41.4,37.5H-2556.9z"/>
	</g>
</g>
<g id="Heavy-S" transform="matrix(1 0 0 1 2582.98 696)">
	<path d="M82.6,7.9H25.4l-3.9-40.7H3.8l7.3-7c0.2-0.2,21-20.2,40.1-36.3l2.6-2.2l2.6,2.2C75.5-60,96.9-40,97.1-39.8l7.5,7H86.5
		L82.6,7.9z M32.8-0.2h42.5l3.9-40.7H84c-7.3-6.7-19-17.3-30.2-26.8C42.6-58.1,31.2-47.6,24-40.9h4.8L32.8-0.2z"/>
</g>
<g id="Bold-S" transform="matrix(1 0 0 1 2288.46 696)">
	<path d="M78.6,5.7H24.2l-3.7-39.1H3.9l6.4-6.2c0.2-0.2,20.2-19.4,38.6-34.9l2.3-2l2.3,2C71.9-59,92.4-39.8,92.6-39.6l6.7,6.2h-17
		L78.6,5.7z M30.7-1.5H72l3.7-39.1H81C73.9-47,62.3-57.5,51.2-67c-11.1,9.5-22.5,20-29.3,26.4H27L30.7-1.5z"/>
</g>
<g id="Semibold-S" transform="matrix(1 0 0 1 1993.29 696)">
	<path d="M75.9,4H24.5l-3.6-38H5.8l5.4-5.3c0.2-0.2,19.3-18.8,36.9-33.9l2-1.7l2,1.7c17.5,15,37.2,33.7,37.4,33.9l5.6,5.3H79.5
		L75.9,4z M30.1-2.2h40.2l3.6-37.9h5.7c-6.7-6.2-18.4-17-29.5-26.7C39-57.2,27.5-46.4,21-40.1h5.6L30.1-2.2z"/>
</g>
<g id="Medium-S" transform="matrix(1 0 0 1 1697.73 696)">
	<g id="Medium-S_1_" transform="matrix(1 0 0 1 1402.53 696)">
		<path d="M-1328.3-692.7h-51.2l-3.5-36.7h-15.5l5.9-5.6c0.2-0.2,19.2-18.2,36.5-32.8l2.1-1.7l2.1,1.7c17.3,14.5,36.8,32.6,37,32.7
			l6.1,5.6h-15.8L-1328.3-692.7z M-1373.6-699.2h39.5l3.5-36.7h5.1c-6.7-6.1-17.9-16.1-28.5-25.2c-10.7,9-21.6,19.1-28.2,25.2h5.1
			L-1373.6-699.2z"/>
	</g>
</g>
<g id="Regular-S" transform="matrix(1 0 0 1 1402.53 696)">
	<path d="M72.6,1.4h-49L20.2-35H6.4l4.1-3.9c0.2-0.2,18.9-18,36.1-32.4l1.4-1.2l1.4,1.2C66.6-56.9,85.8-39,86-38.9l4.2,3.9H76.1
		L72.6,1.4z M27.7-3.1h40.8L72-39.4h6.7C72.4-45.3,59.8-56.6,48-66.6c-11.8,10-24.1,21.3-30.3,27.1h6.6L27.7-3.1z"/>
</g>
<g id="Light-S" transform="matrix(1 0 0 1 1105.89 696)">
	<g id="Light-S_1_" transform="matrix(1 0 0 1 1402.53 696)">
		<path d="M-1331-695h-48.3l-3.4-35.6h-13.7l4.2-4c0.2-0.2,18.6-17.7,35.4-31.8l1.5-1.3l1.5,1.3c16.8,14.1,35.7,31.6,35.9,31.7
			l4.4,4.1h-14L-1331-695z M-1375-699.7h39.8l3.4-35.6h6.3c-6.3-5.8-18.4-16.6-29.8-26.3c-11.4,9.6-23.2,20.5-29.4,26.3h6.2
			L-1375-699.7z"/>
	</g>
</g>
<g id="Thin-S" transform="matrix(1 0 0 1 809.279 696)">
	<g id="Light-S_3_" transform="matrix(1 0 0 1 1402.53 696)">
		<path d="M-1331.7-695.2h-47.4l-3.5-36.2h-12.5l2.6-2.5c0.2-0.2,18.9-18,36-32.3l0.9-0.8l0.9,0.8c17.1,14.3,36.3,32.1,36.5,32.3
			l2.7,2.5h-12.7L-1331.7-695.2z M-1376.5-698.1h42.2l3.5-36.2h8c-5.8-5.3-19.7-18-32.7-28.9c-13,10.9-26.7,23.6-32.3,28.9h7.9
			L-1376.5-698.1z"/>
	</g>
</g>
<g id="Ultralight-S" transform="matrix(1 0 0 1 512.616 696)">
	<path d="M70.2,0.4H23.8l-3.5-36.2H8.4l2.1-2.1c0.2-0.2,18.7-18,35.6-32.3l0.8-0.7l0.8,0.7c16.9,14.3,35.9,32.1,36,32.3l2.2,2.1
		H73.7L70.2,0.4z M25.9-2H68l3.5-36.2h8.3c-5.4-5-19.7-18.2-33-29.5C33.6-56.4,19.6-43.2,14.3-38.2h8.2L25.9-2z"/>
</g>
</svg>
